<?xml version="1.0" encoding="UTF-8" standalone="no"?>
<!DOCTYPE svg PUBLIC "-//W3C//DTD SVG 1.1//EN" "http://www.w3.org/Graphics/SVG/1.1/DTD/svg11.dtd">
<svg xmlns:xl="http://www.w3.org/1999/xlink" xmlns:dc="http://purl.org/dc/elements/1.1/" version="1.1" xmlns="http://www.w3.org/2000/svg" viewBox="108 65 2048 2048" width="2048" height="2048">
  <defs/>
  <g id="キャンバス______1" fill="none" stroke-opacity="1" stroke="none" fill-opacity="1" stroke-dasharray="none">
    <title>キャンバス 1</title>
    <g id="キャンバス______1_レイヤー_1">
      <title>レイヤー 1</title>
      <g id="Group_2">
        <title>layer1</title>
        <g id="Graphic_5">
          <title>path1</title>
          <path d="M 251.26675 1459.4163 C 249.20043 1444.2854 248.17138 1429.3305 247.0125 1412.4888 C 253.23368 1412.4888 257.9942 1412.4866 262.75472 1412.4888 C 651.1934 1412.585 1039.6344 1412.6744 1428.0732 1412.782 C 1557.0442 1412.8188 1686.018 1413.3636 1814.9846 1412.7661 C 1879.516 1412.466 1947.182 1459.1278 1964.9556 1531.2522 C 1989.0696 1629.098 1917.5611 1722.9093 1816.6355 1726.1952 C 1807.174 1726.5043 733.1079 1726.1183 725.8033 1726.1183 C 713.6656 1738.256 700.2503 1679.8033 728.3586 1679.8033 C 731.9143 1679.8033 1842.6959 1676.0506 1846.1923 1674.7888 C 1894.5692 1657.3084 1925.351 1614.0287 1923.3956 1566.0689 C 1921.3507 1515.867 1888.096 1475.4244 1837.4522 1461.9489 C 1832.0298 1460.5062 1826.2023 1460.0368 1820.5648 1460.0346 C 1564.9098 1459.9476 1309.2572 1460.0162 1053.6023 1459.9544 C 786.5028 1459.8927 519.40343 1459.7186 251.26675 1459.4163 Z" fill="#445aa6"/>
        </g>
        <g id="Graphic_4">
          <title>path2</title>
          <path d="M 2138.5265 1815.3216 C 2140.5927 1830.4525 2141.6217 1845.4074 2142.7807 1862.249 C 2136.5594 1862.249 2131.799 1862.2513 2127.0385 1862.249 C 1738.5998 1862.1529 1350.1587 1862.0635 961.72 1861.956 C 832.749 1861.919 703.7753 1861.3743 574.80856 1861.9718 C 510.27715 1862.272 442.61107 1815.6101 424.8375 1743.4857 C 400.72353 1645.6399 472.23197 1551.8286 573.1577 1548.5428 C 582.6193 1548.2336 1656.6852 1548.6197 1663.9898 1548.6197 C 1676.1275 1536.482 1689.5428 1594.9346 1661.4345 1594.9346 C 1657.8788 1594.9346 547.0973 1598.6874 543.6008 1599.9491 C 495.224 1617.4295 464.4421 1660.7092 466.3976 1708.669 C 468.4424 1758.871 501.6972 1799.3135 552.3409 1812.789 C 557.7633 1814.2317 563.591 1814.7012 569.2284 1814.7033 C 824.8833 1814.7904 1080.536 1814.7217 1336.1908 1814.7835 C 1603.2904 1814.8453 1870.3897 1815.0193 2138.5265 1815.3216 Z" fill="#445aa6"/>
        </g>
        <g id="Graphic_3">
          <title>path4764</title>
          <path d="M 1100.9457 1538.1852 C 1095.3076 1533.0182 1094.7182 1531.7834 1096.7322 1529.3566 C 1098.0201 1527.805 1105.3645 1504.8402 1113.0531 1478.3241 C 1125.7159 1434.6534 1128.5403 1427.352 1132.8042 1427.2648 C 1133.5351 1427.25 1134.1333 1449.6443 1134.1333 1477.03 C 1134.1333 1532.6808 1133.4963 1536.252 1122.6533 1541.3975 C 1113.6158 1545.6858 1108.2666 1544.8945 1100.9457 1538.1852 Z M 1144.7654 1542.9353 C 1139.8585 1541.131 1135.6875 1536.5618 1137.7716 1535.2739 C 1139.1295 1534.4346 1139.6626 1517.3524 1139.5273 1479.0216 C 1139.3997 1442.8627 1139.9611 1423.5865 1141.1632 1422.8435 C 1142.1698 1422.2215 1142.9934 1421.991 1142.9934 1422.3317 C 1142.9934 1422.6723 1149.3728 1444.4167 1157.1697 1470.6527 C 1164.9667 1496.8888 1171.346 1520.2597 1171.346 1522.5884 C 1171.346 1536.2284 1156.8025 1547.3612 1144.7654 1542.9353 Z M 1067.6817 1531.952 C 1062.4292 1529.6571 1056.5926 1522.7121 1055.1992 1517.0988 C 1054.5243 1514.3802 1054.68 1512.3867 1055.5451 1512.6688 C 1059.6584 1514.01 1067.787 1503.2985 1087.0078 1471.2081 C 1104.472 1442.0504 1108.7941 1436.0118 1113.3312 1434.4304 C 1116.3168 1433.3895 1119.0123 1432.7906 1119.3212 1433.0994 C 1120.0904 1433.8686 1095.8599 1516.5208 1093.6784 1520.5688 C 1088.5493 1530.0867 1075.9947 1535.584 1067.6817 1531.952 Z M 1183.7502 1531.9765 C 1180.28 1531.013 1179.0739 1529.2276 1178.1835 1523.736 C 1177.5583 1519.8804 1170.9913 1494.825 1163.5899 1468.0577 C 1156.1888 1441.29 1150.775 1418.7475 1151.5594 1417.9631 C 1153.3466 1416.1758 1207.1391 1501.9803 1209.147 1509.8216 C 1211.1699 1517.721 1206.5542 1527.1096 1198.851 1530.7651 C 1192.5548 1533.7527 1190.6863 1533.9026 1183.7502 1531.9765 Z M 1031.9237 1509.498 C 1026.5381 1506.7834 1020.7227 1497.8585 1020.7227 1492.3073 C 1020.7227 1490.8673 1023.3143 1488.6158 1026.4818 1487.3039 C 1029.6493 1485.9922 1039.4382 1478.4188 1048.2348 1470.4742 C 1059.039 1460.7168 1069.0173 1453.622 1078.986 1448.61 C 1087.1024 1444.529 1094.022 1441.469 1094.3629 1441.81 C 1095.8323 1443.2794 1060.0867 1501.5854 1055.1982 1505.693 C 1048.066 1511.686 1039.1546 1513.1426 1031.9237 1509.498 Z M 1217.9111 1510.0806 C 1216.9684 1508.8624 1215.7761 1506.6694 1215.2614 1505.2075 C 1214.7467 1503.7455 1202.2453 1482.6198 1187.4805 1458.2614 C 1162.9064 1417.72 1157.9922 1406.8816 1168.3716 1416.1162 C 1248.015 1486.9752 1247.8582 1486.7942 1241.3695 1500.4681 C 1236.9997 1509.6771 1222.2694 1515.713 1217.9111 1510.0806 Z M 602.1007 1482.9411 C 597.1289 1480.2434 591.88925 1472.1361 591.88925 1467.141 C 591.88925 1465.6 590.4938 1463.8359 588.7882 1463.2206 C 575.5078 1458.4294 569.1644 1444.6223 573.2055 1429.303 C 574.48205 1424.4637 578.11686 1416.7394 581.28284 1412.1379 L 587.03906 1403.7714 L 592.73364 1409.9873 C 602.29315 1420.422 617.154 1420.986 626.46515 1411.2673 C 629.25475 1408.3556 632.7835 1405.9748 634.3067 1405.9767 C 637.9784 1405.9812 647.8705 1420.9363 650.2436 1430.0704 C 651.6976 1435.6668 651.5499 1439.2627 649.5995 1445.7433 C 646.5208 1455.9733 642.9538 1460.154 635.0899 1462.7493 C 631.7966 1463.8362 629.102 1465.8993 629.102 1467.334 C 629.102 1472.3276 623.692 1480.3565 618.5278 1483.027 C 612.10536 1486.3481 608.3437 1486.3285 602.1007 1482.9411 Z M 1644.0597 1482.9411 C 1639.0879 1480.2434 1633.8483 1472.1361 1633.8483 1467.141 C 1633.8483 1465.6 1632.4527 1463.8359 1630.7473 1463.2206 C 1617.4668 1458.4294 1611.1235 1444.6223 1615.1645 1429.303 C 1616.441 1424.4637 1620.076 1416.7394 1623.2418 1412.1379 L 1628.9981 1403.7714 L 1634.6927 1409.9873 C 1644.2523 1420.422 1659.1131 1420.986 1668.4243 1411.2673 C 1671.2139 1408.3556 1674.7425 1405.9748 1676.2658 1405.9767 C 1679.9375 1405.9812 1689.8295 1420.9363 1692.2026 1430.0704 C 1693.6567 1435.6668 1693.5088 1439.2627 1691.5585 1445.7433 C 1688.4798 1455.9733 1684.9128 1460.154 1677.049 1462.7493 C 1673.7556 1463.8362 1671.0612 1465.8993 1671.0612 1467.334 C 1671.0612 1472.3276 1665.6511 1480.3565 1660.4868 1483.027 C 1654.0644 1486.3481 1650.3027 1486.3285 1644.0597 1482.9411 Z M 1007.6888 1482.4826 C 1005.1268 1481.4112 1008.4103 1479.2602 1022.5628 1472.7384 C 1032.5519 1468.1356 1040.9984 1464.6433 1041.333 1464.9777 C 1041.6677 1465.3124 1037.56 1469.3688 1032.2048 1473.992 C 1022.3614 1482.4904 1014.3453 1485.2665 1007.6888 1482.4826 Z M 1248.4205 1482.1858 C 1249.6862 1480.138 1251.0305 1481.4602 1207.0111 1441.4575 C 1176.552 1413.7777 1173.2623 1410.2504 1176.023 1408.2316 C 1177.7217 1406.9895 1179.7635 1405.9733 1180.5603 1405.9733 C 1181.3572 1405.9733 1199.4035 1414.6773 1220.6632 1425.3156 C 1269.8334 1449.92 1275.6981 1455.788 1267.7852 1472.463 C 1266.1923 1475.82 1262.4572 1479.555 1259.1002 1481.148 C 1252.4758 1484.2916 1246.7769 1484.8454 1248.4205 1482.1858 Z M 1000.0255 1475.4893 C 1000.8249 1475.0578 999.9224 1473.6143 998.0201 1472.282 C 996.1178 1470.9495 991.2128 1462.8611 987.12 1454.3078 C 983.0274 1445.7543 978.9459 1437.3712 978.0502 1435.679 C 975.9259 1431.6651 975.9963 1430.7818 978.44 1430.7818 C 980.956 1430.7818 1024.5789 1405.458 1139.4493 1337.3135 C 1298.8728 1242.7387 1320.8751 1229.5495 1347.7642 1212.4403 C 1362.3283 1203.1733 1388.9968 1186.5988 1407.0272 1175.6081 C 1444.0322 1153.0514 1534.0738 1095.917 1580.6872 1065.4152 C 1624.1038 1037.0052 1659.6043 1014.5037 1696.7557 991.8467 C 1714.2988 981.1479 1753.1797 955.5008 1783.1576 934.853 C 1813.1355 914.2054 1851.0126 888.8266 1867.3294 878.4562 C 1900.5277 857.3558 1946.2962 826.1226 1984.3606 798.5917 C 1998.2995 788.5103 2010.6596 779.9157 2011.8272 779.4928 C 2014.602 778.4879 2049.9303 834.3105 2071.2 873.3088 C 2102.1431 930.0438 2148.016 1039.249 2142.3703 1042.7381 C 2136.86 1046.1438 2031.8492 1079.9081 2030.6995 1078.644 C 2030.0074 1077.8827 2028.4219 1074.0703 2027.176 1070.1718 C 2021.5827 1052.6701 2004.5289 1040.5949 1984.921 1040.2522 C 1978.4588 1040.1392 1970.5947 1041.1437 1967.4046 1042.4898 C 1961.9158 1044.8054 1960.9124 1044.5755 1948.075 1038.0596 C 1935.276 1031.563 1933.6531 1031.1886 1918.4236 1031.2149 C 1904.7946 1031.2383 1900.778 1031.9579 1892.3534 1035.8844 C 1874.961 1043.9909 1861.18 1059.162 1855.222 1076.7612 C 1852.412 1085.0623 1851.4226 1086.1106 1843.563 1089.1129 C 1832.9823 1093.1547 1827.0853 1098.2424 1821.193 1108.4127 C 1815.0275 1119.0544 1813.4666 1133.2407 1817.2422 1144.3225 C 1818.8508 1149.0444 1819.8642 1153.2105 1819.4941 1153.5806 C 1819.1242 1153.9506 1802.1217 1159.9269 1781.711 1166.8613 C 1742.5785 1180.1564 1664.0193 1209.136 1609.0398 1230.558 C 1591.0092 1237.5832 1559.9099 1249.1231 1539.9302 1256.2022 C 1497.2138 1271.3371 1452.2379 1288.7207 1407.9133 1307.2278 C 1390.3701 1314.5528 1365.2514 1324.6795 1352.094 1329.7315 C 1338.9366 1334.7837 1309.0335 1346.7936 1285.6425 1356.4201 C 1262.2516 1366.0468 1227.1653 1380.2566 1207.6728 1387.9975 C 1164.2978 1405.2231 1091.2775 1435.9881 1040.2151 1458.5514 C 1007.3778 1473.0613 994.3653 1478.5454 1000.0255 1475.4893 Z M 1142.2676 1391.664 C 1145.9094 1388.6417 1147.0184 1379.9913 1144.4494 1374.6461 C 1139.7853 1364.9424 1123.5873 1365.4203 1119.7981 1375.3739 C 1117.2783 1381.9931 1119.8619 1390.2908 1125.333 1393.1493 C 1129.9545 1395.564 1138.4683 1394.8172 1142.2676 1391.664 Z M 604.98056 1411.8586 C 602.922 1411.4451 599.0127 1408.7847 596.2933 1405.9461 C 592.42776 1401.9114 591.79115 1400.2525 593.37574 1398.343 C 594.4905 1397 594.8114 1395.1769 594.0889 1394.292 C 593.3664 1393.407 594.96166 1394.6101 597.6339 1396.9654 C 604.172 1402.728 616.6952 1402.9421 622.6028 1397.3922 C 626.8774 1393.3764 629.102 1393.875 629.102 1398.8489 C 629.102 1406.1242 614.81 1413.8324 604.98056 1411.8586 Z M 1647.1386 1411.8143 C 1642.1524 1410.591 1633.8483 1402.3708 1633.8483 1398.6581 C 1633.8483 1393.6606 1637.2316 1392.9778 1640.7097 1397.2733 C 1644.8485 1402.3842 1658.5718 1402.887 1663.8385 1398.1208 C 1665.739 1396.401 1668.1414 1395.5178 1669.1774 1396.1582 C 1677.4345 1401.2611 1658.6156 1414.6299 1647.1386 1411.8143 Z M 605.2946 1392.9862 C 602.50054 1390.9432 602.1162 1388.1937 602.3914 1372.2187 C 602.5659 1362.092 602.9922 1353.5228 603.33865 1353.1762 C 603.6852 1352.8297 607.6302 1353.0954 612.10524 1353.7664 L 620.24186 1354.9866 L 620.24186 1372.4053 C 620.24186 1388.3965 619.9191 1390.05 616.3035 1392.5826 C 611.4903 1395.9539 609.4551 1396.0284 605.2946 1392.9862 Z M 1647.2462 1392.9809 C 1644.458 1390.942 1644.063 1388.2348 1644.345 1373.0974 C 1644.5248 1363.4598 1644.8281 1355.426 1645.0192 1355.2449 C 1645.2102 1355.0637 1649.1542 1354.3519 1653.7837 1353.6627 L 1662.2009 1352.4098 L 1662.2009 1371.1168 C 1662.2009 1388.4394 1661.9094 1390.0282 1658.2625 1392.5826 C 1653.4476 1395.9551 1651.4143 1396.0286 1647.2462 1392.9809 Z M 315.03035 1376.6188 C 310.27097 1374.0363 304.8189 1365.8657 304.8189 1361.3153 C 304.8189 1360.0476 301.4299 1357.397 297.28773 1355.4252 C 280.11007 1347.2477 278.4494 1324.725 293.5161 1304.2728 L 299.902 1295.6042 L 305.70656 1301.9403 C 315.5183 1312.6503 329.1972 1312.9426 339.87266 1302.6705 L 345.68776 1297.0752 L 350.02175 1302.3502 C 366.28278 1322.1417 365.653 1346.8781 348.67684 1355.1732 C 345.022 1356.959 342.0317 1359.5902 342.0317 1361.0202 C 342.0317 1366.006 336.618 1374.036 331.4575 1376.7045 C 325.03506 1380.026 321.2733 1380.0063 315.03035 1376.6188 Z M 600.7494 1215.3818 C 350.759 1125.3427 140.58122 1049.627 133.68773 1047.1245 L 121.15412 1042.5745 L 133.9201 1008.528 C 159.17958 941.1623 190.56994 877.3935 228.31352 816.7702 C 238.629 800.2018 247.3071 786.3102 247.59823 785.9002 C 247.88938 785.4903 249.91866 786.7652 252.1077 788.7331 C 259.4746 795.3561 333.21647 847.7809 335.16562 847.7809 C 337.9823 847.7809 336.9094 849.8421 319.436 877.9998 C 304.59144 901.9211 270.2268 964.6054 271.47478 965.4853 C 272.2805 966.0535 469.0679 1068.1651 477.7469 1072.5185 L 484.9891 1076.1512 L 496.1994 1054.5551 C 511.19765 1025.6615 533.6487 988.846 534.99035 990.945 C 535.5842 991.874 655.2839 1077.3441 800.9898 1180.8786 C 946.6958 1284.413 1066.566 1369.7377 1067.3685 1370.4891 C 1068.5859 1371.6292 1058.0468 1379.7101 1055.9543 1379.2408 C 1055.5821 1379.1574 850.7398 1305.4208 600.7494 1215.3818 Z M 1932.9023 1376.6188 C 1928.1428 1374.0363 1922.6906 1365.8657 1922.6906 1361.3153 C 1922.6906 1360.0476 1919.3017 1357.397 1915.1595 1355.4252 C 1909.8988 1352.9207 1906.6056 1349.7576 1904.2358 1344.933 C 1901.1787 1338.7095 1901.0591 1336.9605 1903.026 1327.2557 C 1904.3906 1320.5221 1907.746 1312.592 1911.978 1306.0977 L 1918.747 1295.7099 L 1922.7973 1301.1883 C 1930.8179 1312.0368 1947.182 1312.9485 1957.3306 1303.1126 L 1963.0325 1297.5858 L 1967.711 1302.6057 C 1975.4323 1310.8904 1980.152 1322.5054 1980.2202 1333.3913 C 1980.2967 1345.5493 1976.3375 1352.2103 1966.8108 1355.9525 C 1963.0119 1357.4448 1959.9035 1359.7806 1959.9035 1361.1431 C 1959.9035 1366.018 1954.4364 1374.0636 1949.3293 1376.7045 C 1942.9068 1380.026 1939.145 1380.0063 1932.9023 1376.6188 Z M 667.8848 1077.605 C 444.2557 917.5773 259.19416 785.0507 256.63704 783.10145 L 251.9877 779.5575 L 274.4162 749.2354 C 324.56952 681.43104 370.16525 632.536 442.29326 569.2114 C 445.95165 565.9995 446.2111 566.2765 477.734 607.0706 C 495.1995 629.673 510.4862 649.1642 511.7045 650.38464 C 514.41833 653.1032 514.53484 654.6286 512.02874 654.6286 C 508.7628 654.6286 462.5497 697.7408 439.71 722.0946 L 417.83795 745.4168 L 422.02077 749.5015 C 424.3213 751.7481 463.57085 789.0259 509.242 832.3408 L 592.28045 911.0956 L 627.6936 875.6825 C 657.1173 846.2587 663.4898 840.6797 665.3715 842.696 C 667.0154 844.4578 1068.2762 1348.3906 1079.5703 1362.8778 C 1080.6576 1364.2724 1080.0816 1365.5681 1077.8421 1366.7667 C 1074.9878 1368.2944 1013.4204 1324.868 667.8848 1077.605 Z M 770.6531 964.3058 C 596.7998 745.9127 453.6253 565.91996 452.48754 564.3215 C 450.7068 561.82 454.4011 558.3453 479.03213 539.35564 C 537.74045 494.09317 602.6572 453.5801 662.5825 424.8059 C 679.5348 416.66603 693.7237 410.32487 694.1134 410.71447 C 694.6689 411.27016 737.19645 511.33384 737.19645 512.0854 C 737.19645 512.1896 736.1997 512.29785 734.9814 512.3259 C 730.6077 512.427 671.9944 542.5947 646.4272 557.9042 C 623.30595 571.74894 620.5395 573.9039 622.1128 576.8438 C 626.3182 584.7017 741.1799 777.92175 742.416 779.2175 C 743.1674 780.0054 753.22225 774.9486 764.7602 767.9806 C 776.2981 761.0123 795.7484 750.2973 807.9833 744.1694 L 830.2284 733.0277 L 960.4735 1044.8709 C 1032.108 1216.3847 1090.9513 1357.3328 1091.2362 1358.089 C 1091.5211 1358.8449 1090.6282 1359.8957 1089.2521 1360.4237 C 1087.5449 1361.0789 986.3332 1235.241 770.6531 964.3058 Z M 1096.4076 1352.3691 C 1095.9172 1351.1509 1007.2235 1138.8384 899.3108 880.5637 C 791.3981 622.2889 703.0015 409.8091 702.8738 408.38624 C 702.2528 401.46568 809.7723 363.11613 876.3015 346.52894 C 910.981 337.8825 975.6345 325.4235 977.2808 327.0697 C 977.8756 327.66454 990.598 431.13554 990.598 435.3784 C 990.598 435.66254 988.5322 436.06586 986.0072 436.27485 C 973.0696 437.34554 927.2104 446.78414 896.2 454.75855 C 867.3194 462.1854 861.3091 464.267 861.9838 466.6093 C 862.4341 468.17204 876.1515 520.4853 892.4671 582.861 C 908.7826 645.2369 922.2171 696.43535 922.3215 696.63545 C 922.4259 696.8354 932.8471 694.1762 945.4794 690.726 C 970.7302 683.82945 1018.9506 674.0309 1018.9506 675.7962 C 1018.9506 676.40964 1037.2912 829.1586 1059.7075 1015.2386 C 1082.1239 1201.3186 1100.4645 1353.795 1100.4645 1354.0752 C 1100.4645 1355.6301 1097.1614 1354.2411 1096.4076 1352.3691 Z M 605.7559 1346.5643 C 567.2006 1341.3052 524.77045 1324.8417 490.883 1301.9924 C 468.74326 1287.0642 439.4872 1259.005 423.42183 1237.2912 C 410.08387 1219.2636 390.15587 1180.7459 383.74145 1160.595 C 381.26814 1152.8251 379.2445 1145.4928 379.2445 1144.3012 C 379.2445 1142.8481 382.3927 1143.5267 388.80145 1146.361 C 394.05777 1148.6856 398.76966 1150.1762 399.27237 1149.6736 C 399.7751 1149.1708 402.43924 1154.9998 405.1927 1162.6269 C 435.3271 1246.098 505.91657 1306.4976 594.54726 1324.6474 C 610.4976 1327.9136 619.514 1328.6165 644.16435 1328.5145 C 670.3178 1328.4064 677.0812 1327.7532 695.4695 1323.5594 C 721.4452 1317.635 743.6624 1309.2443 764.663 1297.4267 C 773.4346 1292.4908 782.605 1288.4841 785.0415 1288.5228 C 787.4781 1288.5615 792.9858 1290.1292 797.2809 1292.007 L 805.0902 1295.421 L 786.64865 1306.7817 C 731.98914 1340.4546 666.52 1354.8528 605.7559 1346.5643 Z M 1105.7806 1348.725 C 1105.7806 1348.4265 1078.6706 1118.2363 1045.5363 837.1915 C 1012.4019 556.1465 985.6001 325.89248 985.9768 325.51583 C 986.3534 325.13933 1004.4924 322.81017 1026.2856 320.34002 C 1061.4492 316.35438 1073.2904 315.83845 1131.4752 315.75704 C 1187.8689 315.67796 1202.1223 316.2215 1233.3674 319.64193 C 1253.3472 321.829 1269.9392 323.84858 1270.2385 324.1301 C 1270.538 324.4113 1267.149 348.697 1262.7074 378.09813 C 1258.2658 407.4993 1254.6318 431.7313 1254.6318 431.94733 C 1254.6318 432.16334 1241.6739 431.00157 1225.8363 429.366 C 1209.9987 427.73024 1180.4942 425.8116 1160.2709 425.1021 L 1123.501 423.8121 L 1123.4606 430.68294 C 1123.4385 434.46193 1122.2605 486.59507 1120.8429 546.5342 C 1119.4254 606.4734 1118.2474 657.5813 1118.2252 660.1069 L 1118.1848 664.6993 L 1152.2966 665.9495 C 1185.9588 667.18315 1213.2434 669.3548 1214.8139 670.9252 C 1215.2571 671.3686 1191.7034 823.9562 1162.4722 1010.0091 C 1133.2411 1196.062 1109.3246 1348.5079 1109.3246 1348.7776 C 1109.3246 1349.0472 1108.5273 1349.268 1107.5526 1349.268 C 1106.578 1349.268 1105.7806 1349.0237 1105.7806 1348.725 Z M 1593.9775 1347.2727 C 1554.9521 1343.562 1511.4407 1328.574 1476.5134 1306.8114 L 1458.2836 1295.4527 L 1469.1886 1291.3532 L 1480.0937 1287.2536 L 1495.8165 1296.117 C 1517.5622 1308.3754 1542.2873 1317.852 1567.3968 1323.5519 C 1585.779 1327.7248 1592.7444 1328.4006 1618.786 1328.5379 C 1652.7954 1328.7172 1672.574 1325.5423 1704.567 1314.768 C 1747.9134 1300.1705 1790.3997 1269.5958 1819.7748 1231.86 C 1833.1083 1214.7319 1848.7426 1186.8533 1855.4566 1168.2328 C 1861.1144 1152.5426 1861.4098 1152.131 1869.3703 1148.8432 C 1873.8438 1146.9956 1878.8992 1144.6798 1880.6047 1143.6967 C 1884.8367 1141.2575 1884.652 1143.1708 1878.9042 1161.3271 C 1871.6056 1184.3822 1853.5584 1218.0682 1836.3524 1240.7522 C 1792.3309 1298.7892 1727.0374 1336.9515 1655.1127 1346.6817 C 1634.742 1349.4376 1618.4063 1349.5953 1593.9775 1347.2727 Z M 1116.4981 1343.8819 C 1116.2769 1341.401 1277.7188 326.16042 1278.4508 325.42818 C 1278.9114 324.9676 1295.9253 327.47364 1316.2594 330.997 C 1385.2949 342.95894 1456.1028 362.74883 1521.1673 388.266 C 1539.7711 395.562 1555.3055 401.8425 1555.688 402.2224 C 1556.0704 402.60234 1545.7702 425.69024 1532.7988 453.52847 C 1519.8273 481.367 1508.68 503.27926 1508.0266 502.22214 C 1506.0995 499.1041 1450.2194 478.0754 1416.3323 467.71584 C 1399.0857 462.4435 1384.7289 458.3755 1384.4287 458.67573 C 1382.7767 460.32785 1314.8984 685.7862 1315.5453 687.4721 C 1315.9715 688.5826 1324.1698 691.6984 1333.7641 694.3963 C 1353.9408 700.0698 1403.5433 717.7733 1405.9189 720.149 C 1406.886 721.1161 1351.3608 842.4189 1267.0387 1023.5528 C 1133.867 1309.6215 1116.7002 1346.15 1116.4981 1343.8819 Z M 1130.9758 1333.3196 C 1133.2506 1327.805 1557.2163 416.03485 1560.014 410.64023 L 1562.944 404.99107 L 1596.1117 420.9407 C 1660.1473 451.73364 1722.8682 490.06775 1778.2695 532.27334 C 1793.8634 544.1531 1806.622 555.03075 1806.622 556.4458 C 1806.622 557.861 1790.7073 577.3446 1771.2559 599.7427 C 1746.5795 628.157 1735.4838 639.7417 1734.5474 638.0685 C 1729.784 629.5571 1629.8098 560.3814 1626.8624 563.5576 C 1624.1998 566.42685 1497.1594 764.8478 1497.7296 765.2464 C 1498.0364 765.46105 1507.0589 771.13905 1517.7796 777.86435 C 1537.8267 790.4405 1577.1446 818.9941 1577.1409 820.9741 C 1577.1372 822.9461 1137.9077 1330.5665 1133.823 1333.3196 C 1130.3175 1335.6824 1130.0011 1335.6824 1130.9758 1333.3196 Z M 607.3946 1321.4183 L 602.52144 1320.68 L 602.52144 1272.0666 C 602.52144 1245.3293 602.7781 1223.4533 603.0918 1223.4533 C 603.4055 1223.4533 607.3926 1224.7244 611.952 1226.2779 L 620.24186 1229.1025 L 620.24186 1275.8949 L 620.24186 1322.6875 L 616.2548 1322.4219 C 614.0619 1322.2758 610.0748 1321.8243 607.3946 1321.4183 Z M 1644.4805 1275.8949 L 1644.4805 1229.1025 L 1652.7704 1226.2779 C 1657.3298 1224.7244 1661.3169 1223.4533 1661.6305 1223.4533 C 1661.9443 1223.4533 1662.2009 1245.2779 1662.2009 1271.9525 L 1662.2009 1320.4516 L 1655.5558 1321.55 C 1651.901 1322.1541 1647.9139 1322.6571 1646.6955 1322.6679 C 1644.979 1322.683 1644.4805 1312.158 1644.4805 1275.8949 Z M 1160.7138 1314.4343 C 1163.1504 1311.377 1311.0713 1140.8715 1489.427 935.5331 C 1667.7828 730.1947 1813.4878 561.3892 1813.2156 560.4096 C 1812.3923 557.4455 1858.1104 598.604 1885.2089 625.22305 C 1916.9245 656.3775 1957.5028 703.0669 1985.295 740.3823 C 1996.9873 756.0809 2007.221 769.1909 2008.037 769.5158 C 2010.4765 770.4871 2009.716 774.6732 2006.9036 775.75245 C 2005.4643 776.3047 1985.3296 789.801 1962.1597 805.7444 C 1913.1318 839.4805 1915.3692 838.0463 1916.5449 834.9829 C 1917.773 831.7825 1882.7014 785.0137 1856.7107 755.1918 C 1845.031 741.7908 1834.937 730.8264 1834.2795 730.8264 C 1832.4004 730.8264 1654.2266 887.1512 1654.2266 888.7999 C 1654.2266 889.6098 1661.8022 898.7863 1671.0612 909.1921 C 1689.5694 929.9929 1717.1342 965.9056 1717.1342 969.2183 C 1717.1342 970.3743 1712.1502 974.3696 1706.059 978.0968 C 1699.9674 981.8242 1634.7786 1023.1461 1561.1947 1069.9233 C 1487.6108 1116.7005 1400.1791 1171.504 1366.9023 1191.7088 C 1333.6254 1211.9138 1294.1533 1236.2416 1279.1864 1245.7705 C 1264.2194 1255.2996 1233.2345 1274.21 1210.3309 1287.7938 C 1187.4272 1301.3776 1165.897 1314.1794 1162.4859 1316.2422 L 1156.2837 1319.9928 Z M 317.91025 1303.7642 C 312.29976 1302.6375 304.1238 1293.386 305.52094 1289.745 C 306.567 1287.019 307.12093 1287.1269 311.05283 1290.8208 C 317.12664 1296.5265 330.56765 1296.6348 335.11887 1291.0142 C 338.17274 1287.243 338.35032 1287.2231 340.0828 1290.4602 C 343.67178 1297.1663 328.97313 1305.9857 317.91025 1303.7642 Z M 1935.981 1303.7199 C 1930.1628 1302.2925 1922.986 1294.4745 1923.9853 1290.6528 C 1925.1182 1286.3206 1925.848 1286.3763 1929.6617 1291.086 C 1934.0625 1296.5209 1948.4937 1296.5677 1952.8716 1291.1614 C 1956.1047 1287.1687 1958.1316 1287.7035 1958.1316 1292.5491 C 1958.1316 1299.337 1945.036 1305.9414 1935.981 1303.7199 Z M 317.61743 1286.26 C 313.92145 1283.6714 313.67906 1282.1991 313.67906 1262.3376 C 313.67906 1250.6974 314.05645 1241.1737 314.5177 1241.1737 C 314.97894 1241.1737 318.966 1242.9273 323.3779 1245.0709 L 331.39946 1248.968 L 331.39946 1267.1589 C 331.39946 1283.3301 331.0189 1285.5536 327.9719 1287.1843 C 323.42485 1289.6178 322.26316 1289.5141 317.61743 1286.26 Z M 1935.4891 1286.26 C 1931.8734 1283.7275 1931.551 1282.0743 1931.551 1266.0741 L 1931.551 1248.6467 L 1939.082 1245.6017 C 1943.2242 1243.927 1947.61 1242.1602 1948.8282 1241.6756 C 1950.5267 1241.0001 1951.0432 1245.7766 1951.0432 1262.148 C 1951.0432 1282.2053 1950.8043 1283.6692 1947.1048 1286.26 C 1944.9388 1287.7773 1942.3252 1289.0188 1941.297 1289.0188 C 1940.269 1289.0188 1937.6555 1287.7773 1935.4891 1286.26 Z M 386.3327 1253.5268 C 340.2097 1248.9204 292.68484 1226.1686 260.7367 1193.4 C 232.1617 1164.0911 214.24215 1132.3606 204.90465 1094.5374 C 202.67905 1085.5221 201.05807 1078.1461 201.30244 1078.1461 C 201.54682 1078.1461 205.6006 1079.798 210.31085 1081.817 C 215.02115 1083.8361 219.27367 1085.6159 219.761 1085.772 C 220.24828 1085.9281 222.47027 1092.4497 224.6987 1100.2643 C 230.2913 1119.8764 242.63025 1144.144 256.0669 1161.9577 C 288.70506 1205.2282 336.32346 1230.8004 394.68493 1236.3991 L 416.74726 1238.5156 L 422.97425 1246.9328 L 429.2012 1255.3499 L 414.4121 1255.1021 C 406.27805 1254.9658 393.64236 1254.2569 386.3327 1253.5268 Z M 1835.8608 1253.9986 C 1835.8608 1252.955 1836.492 1251.8353 1837.263 1251.5105 C 1838.0346 1251.1857 1840.8156 1248.0666 1843.4432 1244.5793 L 1848.221 1238.2388 L 1869.9584 1236.3114 C 1929.3922 1231.0417 1978.707 1203.9554 2011.7523 1158.4304 C 2022.5985 1143.4881 2035.1652 1117.5042 2040.0411 1099.9392 L 2044.0754 1085.4055 L 2053.5362 1081.7757 C 2058.7396 1079.7795 2063.24 1078.1461 2063.5367 1078.1461 C 2064.972 1078.1461 2055.1024 1112.5187 2050.376 1123.9805 C 2024.294 1187.2297 1971.8608 1232.1729 1904.719 1248.8304 C 1883.7841 1254.0242 1835.8608 1257.621 1835.8608 1253.9986 Z M 458.2595 1240.655 L 452.0483 1233.1995 L 465.7065 1228.7116 C 484.1144 1222.6631 501.0251 1214.5635 515.4444 1204.8893 L 527.4113 1196.8605 L 537.0515 1199.7233 L 546.69166 1202.586 L 540.4948 1207.9046 C 525.03804 1221.1704 501.55626 1234.4367 478.45623 1242.954 L 464.4707 1248.1105 Z M 1784.1724 1242.1773 C 1775.7237 1238.9692 1763.1163 1233.2134 1756.1558 1229.3866 C 1737.1345 1218.9289 1710.6232 1198.7869 1718.4632 1200.7495 C 1721.519 1201.5145 1734.8544 1198.2004 1734.8544 1196.6758 C 1734.8544 1195.7642 1740.6359 1198.932 1747.7018 1203.7153 C 1763.3647 1214.3183 1774.1507 1219.7848 1791.5596 1225.9431 C 1798.8695 1228.529 1806.0462 1231.1466 1807.5082 1231.7603 C 1808.97 1232.374 1810.8377 1232.725 1811.6584 1232.5404 C 1812.4793 1232.3557 1810.1903 1235.8175 1806.572 1240.2332 C 1802.9536 1244.6489 1799.8897 1248.2052 1799.7635 1248.136 C 1799.6372 1248.0667 1792.6213 1245.3854 1784.1724 1242.1773 Z M 322.10136 1209.509 L 313.6893 1204.8468 L 313.6842 1161.8748 C 313.6814 1138.2403 314.05645 1118.9029 314.5177 1118.9029 C 314.97894 1118.9029 318.966 1120.6566 323.3779 1122.8001 L 331.39946 1126.6973 L 331.39946 1170.6452 C 331.39946 1194.8164 331.2001 1214.4981 330.95644 1214.382 C 330.7128 1214.266 326.72804 1212.0732 322.10136 1209.509 Z M 1931.551 1170.4651 L 1931.551 1126.3759 L 1939.082 1123.331 C 1943.2242 1121.6563 1947.61 1119.8896 1948.8282 1119.4049 C 1950.5636 1118.7145 1951.0432 1127.8823 1951.0432 1161.7591 L 1951.0432 1204.9946 L 1941.297 1209.7746 L 1931.551 1214.5545 Z M 1829.851 1141.9036 C 1828.2833 1137.9854 1827.018 1132.6027 1827.0396 1129.9422 C 1827.0984 1122.6138 1832.8875 1111.3686 1839.4393 1105.8555 C 1845.713 1100.5767 1843.732 1100.6953 1870.9973 1103.965 L 1880.4389 1105.0973 L 1874.098 1109.406 C 1870.6108 1111.7757 1867.7575 1115.1478 1867.7575 1116.8994 C 1867.7575 1118.6511 1866.671 1120.0843 1865.3435 1120.0843 C 1864.0158 1120.0843 1860.0557 1121.8604 1856.5434 1124.0311 C 1851.9248 1126.8856 1849.847 1129.6327 1849.0355 1133.9577 C 1848.4185 1137.2465 1848.3921 1140.7114 1848.9767 1141.6574 C 1849.7504 1142.9092 1836.553 1149.0276 1833.0795 1149.0276 C 1832.8716 1149.0276 1831.4188 1145.8217 1829.851 1141.9036 Z M 1854.1149 1137.23 C 1852.748 1133.668 1860.9537 1125.991 1866.128 1125.991 C 1868.1346 1125.991 1870.273 1124.2658 1871.1608 1121.9312 C 1872.0097 1119.6982 1873.847 1116.923 1875.2437 1115.7638 C 1877.4884 1113.9009 1900.0725 1104.7267 1902.4137 1104.7267 C 1903.2237 1104.7267 1901.492 1122.6524 1900.5713 1123.8002 C 1900.1622 1124.3101 1856.83 1140.1674 1855.846 1140.1674 C 1855.5137 1140.1674 1854.7347 1138.8457 1854.1149 1137.23 Z M 1908.5145 1118.1185 C 1908.5145 1111.0666 1913.1985 1103.3723 1919.4644 1100.1322 C 1926.465 1096.5121 1936.8412 1099.0605 1941.0106 1105.4242 L 1943.7735 1109.6408 L 1928.359 1115.4211 C 1919.881 1118.6003 1911.9477 1121.5671 1910.7293 1122.0138 C 1909.3094 1122.5346 1908.5145 1121.1365 1908.5145 1118.1185 Z M 1945.4976 1099.543 L 1939.0663 1092.7082 L 1956.9078 1086.0904 L 1974.7494 1079.4723 L 1977.8828 1083.3421 C 1980.516 1086.5937 1981.6213 1086.8883 1984.8014 1085.1864 C 1989.492 1082.676 1996.3494 1084.2236 1997.8485 1088.1305 C 1998.466 1089.7403 1998.649 1091.3807 1998.2538 1091.7755 C 1997.732 1092.2973 1951.9293 1106.788 1951.9293 1106.4314 C 1951.9293 1106.4018 1949.035 1103.302 1945.4976 1099.543 Z M 1900.596 1095.9906 C 1897.4553 1089.0258 1897.92 1079.918 1901.4161 1079.918 C 1902.457 1079.918 1902.3984 1078.0448 1901.264 1075.0612 C 1899.6296 1070.7621 1899.9906 1069.7455 1904.409 1066.2098 C 1910.7345 1061.1478 1912.776 1061.1841 1916.904 1066.432 C 1918.7357 1068.7609 1921.7842 1070.9615 1923.6777 1071.3221 C 1925.6427 1071.6965 1929.1823 1075.8173 1931.9232 1080.9219 L 1936.7256 1089.8657 L 1929.6213 1090.285 C 1920.991 1090.7942 1916.418 1092.6379 1909.233 1098.5055 L 1903.7495 1102.9836 Z M 1877.682 1097.453 C 1871.9325 1096.6142 1866.8462 1095.5457 1866.3792 1095.079 C 1864.3565 1093.0563 1870.2125 1076.5035 1875.9142 1068.127 C 1885.3771 1054.2252 1902.4252 1044.4773 1917.2756 1044.4773 C 1927.1947 1044.4773 1940.4971 1049.0381 1949.7355 1055.6065 L 1958.0277 1061.502 L 1950.839 1070.267 C 1946.885 1075.0879 1943.0484 1079.6623 1942.3132 1080.4326 C 1941.578 1081.203 1938.8445 1078.6113 1936.2387 1074.6735 C 1933.6327 1070.7356 1930.3104 1067.5139 1928.856 1067.5139 C 1927.4015 1067.5139 1924.534 1065.5846 1922.484 1063.2268 C 1920.4337 1060.869 1916.82 1058.4538 1914.4533 1057.8598 C 1910.1933 1056.7906 1898.8717 1060.935 1896.7721 1064.3321 C 1895.3633 1066.6117 1893.9052 1078.669 1893.6552 1090.1077 C 1893.5 1097.2114 1892.8233 1099.36 1890.794 1099.1947 C 1889.332 1099.0757 1883.4317 1098.292 1877.682 1097.453 Z M 2001.0301 1084.0148 C 1998.379 1080.3754 1995.95 1079.2015 1990.6952 1079.0206 C 1986.917 1078.8906 1981.5812 1077.8431 1978.8376 1076.693 C 1972.299 1073.9522 1968.9893 1074.0543 1959.8497 1077.279 C 1955.6767 1078.7513 1952.0515 1079.7448 1951.7934 1079.4867 C 1951.5353 1079.2286 1956.3502 1073.4454 1962.4928 1066.6349 L 1973.6612 1054.2522 L 1984.5386 1054.4 C 1993.7894 1054.5256 1996.4043 1055.3302 2002.0253 1059.7812 C 2009.611 1065.7878 2019.3895 1083.69 2016.0394 1085.438 C 2008.9665 1089.1288 2004.443 1088.6998 2001.0301 1084.0148 Z M 381.7325 1014.7522 C 327.06007 986.7558 282.00598 963.4115 281.61223 962.8762 C 281.21852 962.3408 287.44088 949.5204 295.43976 934.3863 C 311.43477 904.1234 343.14294 852.1331 344.0906 854.616 C 344.88927 856.7084 524.27815 984.2279 526.4231 984.2279 C 528.75804 984.2279 528.5082 986.1175 525.7387 989.4045 C 521.46585 994.4758 502.10104 1027.3472 493.7432 1043.7164 C 489.2295 1052.5568 484.5465 1061.1096 483.3366 1062.7225 C 481.36686 1065.3483 470.73924 1060.3308 381.7325 1014.7522 Z M 1722.9468 965.3657 C 1725.2434 961.6497 1665.8475 888.76 1661.5162 889.9793 C 1658.3866 890.8604 1662.232 887.4612 1746.3728 814.9701 C 1790.2308 777.18435 1827.7706 744.7786 1829.7946 742.9571 C 1833.4525 739.6656 1833.6009 739.791 1854.2052 763.6433 C 1875.7183 788.5471 1910.657 834.4573 1910.9848 838.2522 C 1911.1685 840.3814 1848.6573 883.4649 1767.6372 937.049 C 1719.8384 968.6616 1721.5993 967.546 1722.9468 965.3657 Z M 514.46126 826.9258 C 471.76723 786.62685 434.9596 751.8075 432.66645 749.5493 L 428.4971 745.4438 L 446.84275 725.518 C 456.93285 714.5591 477.0474 694.8492 491.5417 681.7185 C 513.1396 662.1527 518.29075 658.2739 520.0884 660.22375 C 521.2948 661.5323 552.4419 700.8789 589.30416 747.6606 C 626.16636 794.4425 657.0805 833.227 658.00206 833.8485 C 658.9236 834.4701 656.1872 838.0065 651.921 841.7077 C 647.65485 845.4089 632.4469 860.083 618.12555 874.3168 L 592.08674 900.1966 Z M 1581.321 816.4837 C 1583.2907 812.9697 1512.1957 762.6197 1507.4093 764.1389 C 1506.4912 764.4304 1506.9174 762.8356 1508.3565 760.5948 C 1587.8074 636.8865 1629.3455 573.1149 1630.4732 573.1149 C 1635.945 573.1149 1731.1795 640.94355 1731.2381 644.8824 C 1731.2595 646.31836 1588.6437 810.6585 1582.0725 816.7702 C 1580.7764 817.9755 1580.5362 817.884 1581.321 816.4837 Z M 687.9395 674.7397 C 656.7164 621.50504 631.5228 577.06106 631.9538 575.9751 C 633.1257 573.02254 679.2566 546.91644 711.5141 530.9511 L 739.87895 516.912 L 783.2817 620.5172 C 807.1532 677.4998 826.8182 724.6337 826.9817 725.2591 C 827.1453 725.8845 818.4611 730.7821 807.6837 736.1426 C 792.2695 743.8091 763.3249 760.0248 746.5616 770.3851 C 745.4734 771.0576 721.28615 731.5948 687.9395 674.7397 Z M 1407.8363 713.215 C 1405.314 710.706 1360.9007 694.7361 1340.5757 689.03005 C 1330.8296 686.2938 1322.678 683.96826 1322.4611 683.86236 C 1321.6453 683.4634 1387.4658 469.69674 1388.8219 468.34063 C 1391.735 465.42755 1506.2616 505.19496 1506.2616 509.1196 C 1506.2616 510.3073 1414.6722 705.7308 1411.2764 711.78855 C 1410.1703 713.7615 1408.9107 714.2838 1407.8363 713.215 Z M 926.7924 689.8434 C 926.7856 689.4805 914.0418 640.1558 898.4729 580.23304 C 876.2852 494.83555 870.6375 470.84743 872.3476 469.2686 C 876.4027 465.5255 989.3834 440.1786 991.6976 442.49296 C 991.9259 442.721 997.7524 490.3457 1004.6454 548.32526 C 1011.5386 606.30484 1017.6415 656.9571 1018.2076 660.886 C 1019.0863 666.9848 1018.7551 668.0654 1015.9422 668.2774 C 1001.295 669.3808 933.1683 685.41154 929.0197 688.7311 C 927.8014 689.7058 926.7991 690.2065 926.7924 689.8434 Z M 1212.8724 663.46015 C 1209.7815 662.28855 1166.1701 659.0489 1135.0193 657.677 L 1126.159 657.28665 L 1126.5722 604.12556 C 1126.7994 574.8869 1127.492 523.9538 1128.1111 490.9405 L 1129.237 430.91673 L 1159.5947 432.0612 C 1194.6079 433.38095 1252.8598 438.48454 1252.8598 440.23227 C 1252.8598 442.5588 1217.4058 664.09165 1216.9737 664.4661 C 1216.7313 664.67604 1214.8858 664.2234 1212.8724 663.46015 Z" fill="#445aa6"/>
        </g>
      </g>
    </g>
  </g>
</svg>
