<?xml version="1.0" encoding="UTF-8" standalone="no"?>
<!DOCTYPE svg PUBLIC "-//W3C//DTD SVG 1.1//EN" "http://www.w3.org/Graphics/SVG/1.1/DTD/svg11.dtd">
<svg xmlns:xl="http://www.w3.org/1999/xlink" xmlns:dc="http://purl.org/dc/elements/1.1/" version="1.1" xmlns="http://www.w3.org/2000/svg" viewBox="121 11.01875 931.4048 712.48125" width="931.4048" height="712.48125">
  <defs/>
  <g id="キャンバス______1" stroke-dasharray="none" stroke="none" fill="none" stroke-opacity="1" fill-opacity="1">
    <title>キャンバス 1</title>
    <g id="キャンバス______1_レイヤー_1">
      <title>レイヤー 1</title>
      <g id="Group_2">
        <title>layer1</title>
        <g id="Graphic_5">
          <title>path1</title>
          <path d="M 180.94362 537.9123 C 179.99166 530.94135 179.51757 524.05156 178.98367 516.2925 C 181.8498 516.2925 184.043 516.2915 186.2362 516.2925 C 365.1921 516.3368 544.14905 516.378 723.105 516.4276 C 782.52265 516.4445 841.9416 516.6955 901.3572 516.42024 C 931.0872 516.282 962.2613 537.77934 970.4497 571.00745 C 981.5592 616.0856 948.6148 659.305 902.1178 660.8188 C 897.7588 660.9612 402.93054 660.78334 399.5653 660.78334 C 393.9734 666.37525 387.79285 639.4458 400.74253 639.4458 C 402.38064 639.4458 914.124 637.7169 915.7348 637.1356 C 938.0223 629.0823 952.2037 609.14306 951.3028 587.0477 C 950.3607 563.9194 935.04 545.2873 911.7082 539.079 C 909.2101 538.4144 906.5253 538.1981 903.9281 538.1971 C 786.1464 538.157 668.3658 538.1886 550.5841 538.16016 C 427.5299 538.1317 304.4757 538.0515 180.94362 537.9123 Z" fill="#445aa6"/>
        </g>
        <g id="Graphic_4">
          <title>path2</title>
          <path d="M 1050.4148 701.8798 C 1051.3667 708.8507 1051.8408 715.7405 1052.3747 723.4995 C 1049.5086 723.4995 1047.3154 723.5006 1045.1222 723.4995 C 866.1663 723.4553 687.2093 723.4141 508.25343 723.3645 C 448.83575 723.34755 389.41684 723.0966 330.00116 723.3718 C 300.27117 723.51016 269.09703 702.0127 260.90865 668.7846 C 249.7992 623.7065 282.74354 580.4871 329.2406 578.9733 C 333.5996 578.8309 828.4278 579.00874 831.7931 579.00874 C 837.385 573.4168 843.5655 600.3463 830.6158 600.3463 C 828.9777 600.3463 317.23443 602.0752 315.62357 602.6565 C 293.3361 610.7098 279.1547 630.649 280.05562 652.7444 C 280.99767 675.8727 296.31835 694.5048 319.6502 700.71306 C 322.1483 701.3777 324.83315 701.594 327.43035 701.595 C 445.212 701.6351 562.9926 701.6035 680.77424 701.6319 C 803.8285 701.6604 926.8827 701.7406 1050.4148 701.8798 Z" fill="#445aa6"/>
        </g>
        <g id="Graphic_3">
          <title>path4764</title>
          <path d="M 572.3955 574.20154 C 569.798 571.82104 569.52644 571.2522 570.4543 570.13414 C 571.04764 569.4193 574.43125 558.8393 577.9734 546.6232 C 583.8073 526.50384 585.1085 523.14 587.0729 523.09986 C 587.4096 523.09304 587.6852 533.4102 587.6852 546.027 C 587.6852 571.6656 587.39174 573.3109 582.3963 575.6814 C 578.2327 577.6571 575.76826 577.2925 572.3955 574.20154 Z M 592.5835 576.3899 C 590.32285 575.5586 588.40124 573.4536 589.3614 572.86025 C 589.987 572.4736 590.2326 564.60374 590.17024 546.9445 C 590.11146 530.2859 590.3701 521.4053 590.92394 521.06297 C 591.3877 520.7764 591.7671 520.6702 591.7671 520.82715 C 591.7671 520.9841 594.7061 531.00185 598.2982 543.08894 C 601.8903 555.176 604.82934 565.94316 604.82934 567.016 C 604.82934 573.3 598.129 578.42895 592.5835 576.3899 Z M 557.0706 571.32985 C 554.6507 570.2726 551.96177 567.073 551.3198 564.4869 C 551.0089 563.2344 551.0806 562.316 551.4792 562.446 C 553.3742 563.06385 557.1191 558.12904 565.9742 543.3448 C 574.0201 529.9117 576.0113 527.1297 578.10155 526.4011 C 579.477 525.92154 580.7189 525.6456 580.8612 525.7879 C 581.21556 526.1423 570.05244 564.2206 569.0474 566.0856 C 566.6844 570.4705 560.9004 573.0032 557.0706 571.32985 Z M 610.544 571.3411 C 608.9453 570.8972 608.3896 570.0747 607.9794 567.5447 C 607.6914 565.7684 604.6659 554.22526 601.25604 541.8934 C 597.8463 529.56134 595.3521 519.1759 595.7135 518.81454 C 596.5369 517.9911 621.3194 557.52174 622.2444 561.13423 C 623.1764 564.7735 621.0499 569.09895 617.501 570.78305 C 614.60034 572.1595 613.7395 572.2285 610.544 571.3411 Z M 540.59666 560.9852 C 538.1155 559.7345 535.4363 555.6228 535.4363 553.0653 C 535.4363 552.4019 536.63026 551.36463 538.08956 550.7602 C 539.54886 550.1559 544.05866 546.6668 548.1113 543.00666 C 553.08886 538.5114 557.6859 535.2428 562.2785 532.9337 C 566.0178 531.0536 569.2057 529.6438 569.36275 529.8009 C 570.0397 530.4779 553.5715 557.3398 551.31936 559.2322 C 548.03355 561.9932 543.928 562.6643 540.59666 560.9852 Z M 626.2821 561.2536 C 625.8478 560.69234 625.2985 559.682 625.0614 559.0085 C 624.8243 558.335 619.0648 548.60224 612.26256 537.3802 C 600.94115 518.7025 598.6771 513.7092 603.459 517.96365 C 640.1512 550.6088 640.0789 550.5254 637.08955 556.82505 C 635.0763 561.0677 628.29 563.8485 626.2821 561.2536 Z M 342.5748 548.75025 C 340.28426 547.5074 337.87033 543.7723 337.87033 541.4711 C 337.87033 540.7611 337.2274 539.9484 336.44165 539.6649 C 330.3233 537.4576 327.40086 531.09656 329.2626 524.03884 C 329.85073 521.8094 331.5253 518.2508 332.9839 516.1308 L 335.6358 512.2763 L 338.25934 515.14003 C 342.66346 519.9474 349.50993 520.2072 353.79964 515.72973 C 355.08482 514.3883 356.7105 513.29146 357.41227 513.2923 C 359.10384 513.2944 363.6612 520.1843 364.7545 524.39243 C 365.4244 526.97074 365.3563 528.6274 364.45777 531.61304 C 363.03937 536.32604 361.39603 538.25213 357.7731 539.4478 C 356.25585 539.9485 355.01446 540.899 355.01446 541.56 C 355.01446 543.8606 352.52203 547.5595 350.14286 548.78984 C 347.184 550.3199 345.45097 550.31083 342.5748 548.75025 Z M 822.6112 548.75025 C 820.3206 547.5074 817.9067 543.7723 817.9067 541.4711 C 817.9067 540.7611 817.2638 539.9484 816.4781 539.6649 C 810.3597 537.4576 807.4373 531.09656 809.299 524.03884 C 809.8871 521.8094 811.5617 518.2508 813.0203 516.1308 L 815.6722 512.2763 L 818.2957 515.14003 C 822.6999 519.9474 829.5464 520.2072 833.8361 515.72973 C 835.1212 514.3883 836.7469 513.29146 837.4487 513.2923 C 839.1403 513.2944 843.6976 520.1843 844.7909 524.39243 C 845.4608 526.97074 845.3927 528.6274 844.4941 531.61304 C 843.0758 536.32604 841.4324 538.25213 837.8095 539.4478 C 836.2922 539.9485 835.0509 540.899 835.0509 541.56 C 835.0509 543.8606 832.5585 547.5595 830.17925 548.78984 C 827.2204 550.3199 825.4874 550.31083 822.6112 548.75025 Z M 529.4315 548.539 C 528.2512 548.04545 529.7639 547.05445 536.28407 544.0498 C 540.8861 541.9293 544.77745 540.32036 544.9316 540.4744 C 545.0858 540.6286 543.19333 542.49744 540.7262 544.6274 C 536.1913 548.5426 532.4982 549.8216 529.4315 548.539 Z M 640.33796 548.4023 C 640.9211 547.45884 641.5404 548.068 621.2604 529.6385 C 607.2277 516.8863 605.7122 515.26125 606.984 514.3312 C 607.7666 513.75894 608.7073 513.29075 609.0744 513.29075 C 609.4415 513.29075 617.75556 517.30073 627.55 522.20184 C 650.203 533.53727 652.9049 536.2407 649.2594 543.92294 C 648.5255 545.4695 646.80475 547.19025 645.2582 547.92416 C 642.20625 549.3724 639.5807 549.6276 640.33796 548.4023 Z M 525.901 545.3172 C 526.2693 545.11836 525.8535 544.45336 524.9771 543.8396 C 524.1007 543.2257 521.8409 539.4993 519.9554 535.5587 C 518.0699 531.61807 516.1895 527.75595 515.77686 526.97635 C 514.7982 525.12713 514.8306 524.72015 515.9564 524.72015 C 517.11556 524.72015 537.2129 513.05334 590.1343 481.6588 C 663.5816 438.08766 673.7182 432.0113 686.10615 424.129 C 692.81595 419.85967 705.1023 412.2237 713.40895 407.1602 C 730.45735 396.7682 771.94 370.44605 793.4151 356.39374 C 813.4174 343.30506 829.7726 332.9385 846.8885 322.5003 C 854.9707 317.57132 872.8834 305.75556 886.6943 296.24298 C 900.5053 286.7305 917.9555 275.03836 925.4728 270.26066 C 940.7674 260.5396 961.8532 246.15027 979.3897 233.46666 C 985.8115 228.82206 991.5058 224.86252 992.0437 224.66765 C 993.3221 224.2047 1009.598 249.9225 1019.3971 267.8892 C 1033.6528 294.02735 1054.7866 344.3388 1052.1857 345.94628 C 1049.647 347.51527 1001.268 363.07067 1000.7383 362.4883 C 1000.4194 362.1376 999.689 360.38117 999.115 358.58512 C 996.5381 350.522 988.6813 344.95887 979.6479 344.80097 C 976.6707 344.7489 973.0477 345.21172 971.578 345.83185 C 969.0492 346.8987 968.587 346.79275 962.6727 343.79082 C 956.7761 340.79785 956.0285 340.62533 949.0122 340.63744 C 942.7332 340.64825 940.8827 340.97975 937.0015 342.78872 C 928.9887 346.52344 922.6397 353.51282 919.8949 361.6209 C 918.6002 365.44528 918.1444 365.9282 914.5235 367.31138 C 909.6489 369.1735 906.9321 371.5174 904.2175 376.20293 C 901.377 381.1056 900.6579 387.6413 902.3973 392.7468 C 903.1384 394.92217 903.6053 396.8415 903.4348 397.01203 C 903.2644 397.1825 895.4312 399.9358 886.0279 403.1305 C 867.9994 409.25564 831.8067 422.60673 806.4773 432.4759 C 798.1705 435.7125 783.8429 441.029 774.6381 444.2904 C 754.95845 451.2631 734.2378 459.27183 713.8172 467.79815 C 705.73495 471.1728 694.1626 475.83824 688.1009 478.1657 C 682.03925 480.4933 668.2627 486.0263 657.48635 490.4613 C 646.71005 494.8964 630.5456 501.44293 621.5653 505.0092 C 601.58215 512.94513 567.9413 527.11876 544.41656 537.5138 C 529.2882 544.19857 523.2933 546.72514 525.901 545.3172 Z M 591.4327 506.69835 C 593.1105 505.306 593.62146 501.3207 592.4379 498.85816 C 590.2891 494.3876 582.8266 494.60775 581.0809 499.1934 C 579.92 502.24295 581.1103 506.06576 583.63084 507.3827 C 585.76 508.4951 589.68235 508.1511 591.4327 506.69835 Z M 343.90156 516.0021 C 342.95317 515.81164 341.15213 514.586 339.8993 513.27824 C 338.1184 511.4194 337.82513 510.65517 338.55516 509.77547 C 339.06873 509.15674 339.2166 508.3168 338.88373 507.9091 C 338.55087 507.5014 339.2858 508.05566 340.51693 509.1408 C 343.52906 511.7956 349.29857 511.8943 352.02024 509.3374 C 353.98956 507.4873 355.01446 507.717 355.01446 510.0085 C 355.01446 513.3603 348.43004 516.9115 343.90156 516.0021 Z M 824.0296 515.9817 C 821.7325 515.4182 817.9067 511.6311 817.9067 509.9206 C 817.9067 507.6182 819.4654 507.30364 821.0678 509.2826 C 822.9746 511.63726 829.297 511.8689 831.7234 509.6731 C 832.5989 508.88075 833.7057 508.47385 834.1831 508.7689 C 837.9871 511.11984 829.3172 517.2789 824.0296 515.9817 Z M 344.04624 507.3075 C 342.759 506.3663 342.58194 505.0996 342.70873 497.73983 C 342.7891 493.0744 342.9855 489.1265 343.14513 488.96684 C 343.3048 488.8072 345.12226 488.9296 347.18395 489.23873 L 350.93253 489.8009 L 350.93253 497.82577 C 350.93253 505.193 350.78383 505.9548 349.1181 507.12157 C 346.90063 508.67475 345.963 508.7091 344.04624 507.3075 Z M 824.0792 507.3051 C 822.7947 506.36574 822.6127 505.1185 822.7427 498.14465 C 822.8254 493.70455 822.9652 490.0033 823.0532 489.9199 C 823.1412 489.8364 824.9582 489.50847 827.0911 489.19095 L 830.9689 488.61375 L 830.9689 497.2322 C 830.9689 505.2128 830.8346 505.94476 829.1545 507.12157 C 826.9362 508.6753 825.9995 508.70917 824.0792 507.3051 Z M 210.31987 499.76696 C 208.1272 498.5772 205.6154 494.81296 205.6154 492.7166 C 205.6154 492.13255 204.05406 490.9114 202.14575 490.00296 C 194.2319 486.23555 193.46682 475.8592 200.40814 466.43675 L 203.35015 462.44307 L 206.02435 465.3622 C 210.54467 470.29635 216.84663 470.431 221.76486 465.6986 L 224.4439 463.1208 L 226.4406 465.551 C 233.93215 474.66905 233.642 486.06526 225.821 489.88685 C 224.1372 490.70957 222.75955 491.9218 222.75955 492.5806 C 222.75955 494.87763 220.26542 498.57707 217.88795 499.8065 C 214.9291 501.33666 213.19603 501.3276 210.31987 499.76696 Z M 341.95226 425.48417 C 226.78027 384.00267 129.95018 349.12 126.7743 347.9671 L 121 345.87087 L 126.88136 330.1855 C 138.51855 299.1497 152.98026 269.77105 170.36894 241.84159 C 175.12133 234.2084 179.11938 227.8085 179.25352 227.6196 C 179.38765 227.43077 180.32255 228.0181 181.33105 228.92474 C 184.72502 231.976 218.69832 256.12838 219.5963 256.12838 C 220.89397 256.12838 220.39967 257.078 212.34958 270.05038 C 205.5106 281.07105 189.67862 309.95006 190.25358 310.35546 C 190.62477 310.61722 281.28584 357.66062 285.2843 359.66626 L 288.62083 361.33987 L 293.78546 351.3904 C 300.69525 338.079 311.03858 321.11785 311.65668 322.0849 C 311.93026 322.5129 367.0766 361.88944 434.20413 409.58836 C 501.3317 457.28724 556.5566 496.5968 556.9263 496.943 C 557.48714 497.4682 552.6317 501.19116 551.6677 500.97495 C 551.4962 500.9365 457.12424 466.96566 341.95226 425.48417 Z M 955.6826 499.76696 C 953.4899 498.5772 950.978 494.81296 950.978 492.7166 C 950.978 492.13255 949.4167 490.9114 947.5084 490.00296 C 945.0847 488.84914 943.5676 487.3919 942.4758 485.1692 C 941.0674 482.30195 941.0122 481.4962 941.9184 477.0251 C 942.5471 473.9229 944.0929 470.26947 946.0426 467.2775 L 949.1612 462.4918 L 951.0272 465.0157 C 954.7223 470.0137 962.2613 470.43373 966.9368 465.90223 L 969.5637 463.35604 L 971.7191 465.6687 C 975.2764 469.48555 977.4508 474.8366 977.4822 479.8518 C 977.5174 485.45307 975.6934 488.52185 971.3044 490.2459 C 969.5542 490.9334 968.1222 492.00954 968.1222 492.63725 C 968.1222 494.8831 965.6034 498.5898 963.2506 499.8065 C 960.2917 501.33666 958.5587 501.3276 955.6826 499.76696 Z M 372.8819 362.00965 C 269.85472 288.28397 184.59582 227.22821 183.41774 226.3302 L 181.27576 224.69747 L 191.6087 210.7279 C 214.71462 179.49006 235.72083 156.96385 268.9506 127.78985 C 270.63605 126.3101 270.75558 126.43772 285.27836 145.2318 C 293.3248 155.64484 300.36747 164.62456 300.92876 165.18681 C 302.17904 166.43928 302.2327 167.142 301.07814 167.142 C 299.5735 167.142 278.28287 187.00404 267.7605 198.224 L 257.6839 208.96865 L 259.61096 210.85049 C 260.67083 211.88553 278.7533 229.0596 299.79426 249.01505 L 338.05055 285.29782 L 354.3656 268.9828 C 367.92126 255.4271 370.8571 252.85683 371.724 253.78575 C 372.48137 254.5974 557.3445 486.7621 562.5477 493.4364 C 563.04865 494.0789 562.7833 494.67587 561.75156 495.22806 C 560.4365 495.93186 532.0721 475.9251 372.8819 362.00965 Z M 420.22784 309.81203 C 340.13264 209.19714 274.17134 126.27346 273.64717 125.53704 C 272.82677 124.38458 274.52876 122.78376 285.8764 114.03513 C 312.92367 93.18245 342.83117 74.51785 370.4391 61.26143 C 378.24912 57.51133 384.786 54.589924 384.96557 54.76941 C 385.2215 55.025426 404.81417 101.12532 404.81417 101.47158 C 404.81417 101.51958 404.35496 101.56945 403.79367 101.58238 C 401.7787 101.62894 374.77524 115.52737 362.99628 122.58056 C 352.34418 128.9589 351.06964 129.9517 351.7945 131.30613 C 353.73193 134.92632 406.64937 223.94387 407.21885 224.54083 C 407.56504 224.90383 412.19734 222.57414 417.51294 219.36395 C 422.8285 216.15362 431.7894 211.21715 437.42606 208.39397 L 447.67453 203.26092 L 507.67914 346.92884 C 540.6816 425.9462 567.79104 490.8818 567.9223 491.2302 C 568.0535 491.5784 567.64216 492.06256 567.0082 492.3058 C 566.22165 492.60764 519.5929 434.63346 420.22784 309.81203 Z M 570.3048 488.595 C 570.07884 488.03375 529.21716 390.2202 479.5012 271.23158 C 429.7852 152.24295 389.06034 54.352305 389.00153 53.69679 C 388.71545 50.508443 438.25026 32.84059 468.90066 25.198782 C 484.8777 21.21531 514.6639 15.475384 515.4224 16.233795 C 515.6964 16.507843 521.5577 64.17752 521.5577 66.132215 C 521.5577 66.26313 520.606 66.44894 519.4427 66.54523 C 513.48226 67.0385 492.3547 71.386915 478.068 75.06077 C 464.76256 78.48235 461.99355 79.44138 462.3044 80.52047 C 462.51187 81.24044 468.83154 105.34146 476.3482 134.0783 C 483.86486 162.81522 490.0542 186.40263 490.10233 186.49482 C 490.15044 186.58694 494.9515 185.36184 500.7713 183.7723 C 512.40447 180.59502 534.6199 176.08077 534.6199 176.89408 C 534.6199 177.17668 543.0695 247.54896 553.3968 333.27708 C 563.7242 419.0052 572.1738 489.25195 572.1738 489.381 C 572.1738 490.0974 570.65205 489.45745 570.3048 488.595 Z M 344.2588 485.9207 C 326.49614 483.4978 306.9483 475.91297 291.33617 465.3862 C 281.13627 458.5087 267.65784 445.58163 260.25644 435.57797 C 254.11156 427.27256 244.93062 409.5272 241.97546 400.2436 C 240.836 396.66397 239.9037 393.28593 239.9037 392.73694 C 239.9037 392.0675 241.3541 392.38015 244.30663 393.6859 C 246.72825 394.75688 248.89904 395.4436 249.13064 395.21203 C 249.36226 394.9804 250.58964 397.66586 251.85817 401.1797 C 265.74127 439.6353 298.26223 467.46173 339.0949 475.82344 C 346.4433 477.3282 350.5972 477.65203 361.95376 477.60504 C 374.0028 477.55525 377.11875 477.2543 385.59034 475.3222 C 397.5575 472.5928 407.79306 468.72714 417.4682 463.28275 C 421.5093 461.00874 425.73414 459.1628 426.85667 459.18065 C 427.9792 459.19847 430.5166 459.92074 432.4954 460.78585 L 436.0932 462.3587 L 427.5971 467.59265 C 402.41513 483.1059 372.2531 489.73926 344.2588 485.9207 Z M 574.62295 486.91615 C 574.62295 486.7786 562.13324 380.7287 546.86805 251.24976 C 531.60286 121.77078 519.25513 15.691447 519.42866 15.517921 C 519.6022 15.344467 527.9589 14.27141 537.9992 13.133399 C 554.19924 11.297189 559.65455 11.059498 586.4606 11.021991 C 612.4415 10.985561 619.0081 11.23597 633.4029 12.811784 C 642.6077 13.819382 650.2517 14.74981 650.38966 14.879505 C 650.52765 15.009056 648.9663 26.197614 646.92 39.742886 C 644.8738 53.28816 643.19955 64.452 643.19955 64.551515 C 643.19955 64.65103 637.2298 64.1158 629.9333 63.36227 C 622.6368 62.608675 609.0439 61.724736 599.7269 61.397876 L 582.78685 60.80358 L 582.76824 63.969 C 582.758 65.710005 582.21536 89.72803 581.56225 117.34232 C 580.9092 144.95667 580.3665 168.50233 580.3563 169.66593 L 580.33766 171.78165 L 596.05315 172.35762 C 611.5615 172.92598 624.1317 173.92647 624.8552 174.64996 C 625.0594 174.85423 614.2081 245.15222 600.7411 330.86784 C 587.27415 416.5834 576.2557 486.8161 576.2557 486.94036 C 576.2557 487.0646 575.88836 487.16634 575.43935 487.16634 C 574.99034 487.16634 574.62295 487.05375 574.62295 486.91615 Z M 799.538 486.24705 C 781.5588 484.5375 761.5128 477.6325 745.4217 467.6063 L 737.0231 462.3733 L 742.0471 460.48464 L 747.0711 458.5959 L 754.3147 462.6793 C 764.3331 468.32685 775.724 472.6928 787.2921 475.31874 C 795.761 477.24125 798.9699 477.5526 810.9674 477.6158 C 826.6357 477.69845 835.7479 476.23574 850.4872 471.27197 C 870.4572 464.5468 890.0309 450.4609 903.5641 433.0758 C 909.7069 425.18475 916.9097 412.34095 920.0029 403.7624 C 922.6095 396.5338 922.7456 396.3442 926.413 394.8295 C 928.474 393.97827 930.803 392.91136 931.5888 392.45847 C 933.5385 391.3347 933.4534 392.21615 930.8053 400.58087 C 927.4428 411.2025 919.1284 426.7218 911.2015 437.17246 C 890.9205 463.91046 860.8395 481.492 827.7033 485.9748 C 818.3184 487.24444 810.7925 487.3171 799.538 486.24705 Z M 579.56056 484.6849 C 579.4587 483.5419 653.83585 15.81489 654.1731 15.47754 C 654.3853 15.265357 662.2237 16.419895 671.5917 18.043132 C 703.3968 23.55406 736.0184 32.671376 765.994 44.427287 C 774.5648 47.78858 781.7216 50.68204 781.8978 50.857075 C 782.074 51.03211 777.3287 61.668834 771.3526 74.494065 C 765.3766 87.31944 760.241 97.41453 759.94 96.92751 C 759.05215 95.49102 733.30784 85.80298 717.69586 81.03027 C 709.75025 78.60127 703.136 76.72712 702.9977 76.86544 C 702.2366 77.62658 670.9647 181.4965 671.2627 182.27323 C 671.4591 182.78482 675.2361 184.2203 679.65624 185.46322 C 688.95175 188.07703 711.8039 196.23316 712.8984 197.32763 C 713.3439 197.7732 687.76316 253.65807 648.9155 337.1075 C 587.56254 468.90095 579.6537 485.72985 579.56056 484.6849 Z M 586.2305 479.81877 C 587.27854 477.2782 782.6019 57.22054 783.8909 54.73521 L 785.2407 52.132614 L 800.5212 59.48069 C 830.0228 73.66718 858.9187 91.32792 884.4424 110.77227 C 891.6266 116.24533 897.5045 121.25674 897.5045 121.90866 C 897.5045 122.56066 890.1725 131.53685 881.2112 141.85577 C 869.8426 154.94643 864.7307 160.28354 864.2993 159.5127 C 862.1049 155.59145 816.0461 123.7218 814.6883 125.1851 C 813.4616 126.50698 754.9334 217.92063 755.1961 218.1043 C 755.3374 218.20316 759.4941 220.81905 764.4332 223.91743 C 773.669 229.71132 791.783 242.86614 791.7813 243.77832 C 791.7796 244.68683 589.4241 478.5504 587.54224 479.81877 C 585.9272 480.90735 585.7815 480.90735 586.2305 479.81877 Z M 345.01373 474.3358 L 342.76864 473.99564 L 342.76864 451.5992 C 342.76864 439.28114 342.8869 429.20275 343.0314 429.20275 C 343.17594 429.20275 345.0128 429.78836 347.11335 430.5041 L 350.93253 431.8054 L 350.93253 453.3629 L 350.93253 474.92053 L 349.09566 474.79817 C 348.0854 474.73084 346.2485 474.5228 345.01373 474.3358 Z M 822.805 453.3629 L 822.805 431.8054 L 826.6242 430.5041 C 828.7248 429.78836 830.5617 429.20275 830.70615 429.20275 C 830.8507 429.20275 830.9689 439.25746 830.9689 451.5466 L 830.9689 473.89044 L 827.9075 474.39644 C 826.2237 474.6748 824.3868 474.9065 823.8255 474.9115 C 823.0347 474.91845 822.805 470.0695 822.805 453.3629 Z M 599.931 471.1182 C 601.05356 469.70974 669.20156 391.1569 751.371 296.55633 C 833.5405 201.95577 900.6677 124.18612 900.5423 123.73481 C 900.163 122.36924 921.2255 141.33117 933.7099 153.59472 C 948.3215 167.94777 967.0162 189.45783 979.8202 206.64923 C 985.2069 213.8817 989.9216 219.92153 990.2975 220.0712 C 991.4215 220.5187 991.071 222.44724 989.7754 222.94447 C 989.1123 223.1989 979.8361 229.41672 969.1616 236.76192 C 946.5742 252.30435 947.605 251.6436 948.1466 250.23225 C 948.7124 248.75782 932.5548 227.21119 920.5807 213.47205 C 915.1998 207.29813 910.5494 202.24678 910.2465 202.24678 C 909.3808 202.24678 827.2951 274.2665 827.2951 275.02604 C 827.2951 275.3992 830.7853 279.62688 835.0509 284.42085 C 843.5777 294.00392 856.277 310.5491 856.277 312.07527 C 856.277 312.60784 853.9809 314.4485 851.1746 316.16566 C 848.3682 317.88288 818.3353 336.9201 784.4348 358.47062 C 750.5343 380.02114 710.254 405.26944 694.9232 414.5779 C 679.5924 423.88644 661.4073 435.0944 654.512 439.48445 C 647.6166 443.87454 633.3417 452.5867 622.78985 458.8448 C 612.238 465.10294 602.3189 471.0008 600.7474 471.9511 L 597.89004 473.67905 Z M 211.64666 466.20243 C 209.06187 465.68337 205.29516 461.4212 205.93884 459.74376 C 206.42076 458.48784 206.67596 458.53756 208.4874 460.23933 C 211.28564 462.868 217.478 462.9179 219.57477 460.32843 C 220.9817 458.591 221.06351 458.5819 221.86168 460.0732 C 223.51514 463.16275 216.7434 467.2259 211.64666 466.20243 Z M 957.1009 466.18203 C 954.4205 465.5244 951.1141 461.92264 951.5745 460.16195 C 952.0964 458.1661 952.4326 458.19173 954.1896 460.36155 C 956.2171 462.8654 962.8656 462.887 964.8825 460.39626 C 966.3721 458.5568 967.3059 458.8032 967.3059 461.0356 C 967.3059 464.1628 961.2726 467.2055 957.1009 466.18203 Z M 211.51176 458.1382 C 209.809 456.9456 209.69733 456.2673 209.69733 447.117 C 209.69733 441.7543 209.8712 437.36665 210.0837 437.36665 C 210.29619 437.36665 212.13305 438.17456 214.16563 439.1621 L 217.8612 440.95755 L 217.8612 449.3382 C 217.8612 456.78836 217.6859 457.8127 216.2821 458.564 C 214.18727 459.68513 213.65207 459.63735 211.51176 458.1382 Z M 956.8744 458.1382 C 955.2086 456.97145 955.06 456.2098 955.06 448.8384 L 955.06 440.8095 L 958.5296 439.40667 C 960.4379 438.63514 962.4585 437.82115 963.0197 437.5979 C 963.8022 437.28667 964.0402 439.48725 964.0402 447.02965 C 964.0402 456.27016 963.9301 456.9446 962.2258 458.1382 C 961.2279 458.8372 960.0238 459.40914 959.5501 459.40914 C 959.0764 459.40914 957.8724 458.8372 956.8744 458.1382 Z M 243.16927 443.0578 C 221.92015 440.9356 200.02517 430.4537 185.30649 415.357 C 172.14181 401.85425 163.88618 387.23585 159.58434 369.8105 C 158.559 365.6571 157.8122 362.2589 157.92479 362.2589 C 158.03737 362.2589 159.90497 363.01998 162.07501 363.95015 C 164.24507 364.88033 166.20423 365.7003 166.42875 365.7722 C 166.65324 365.84413 167.67692 368.84868 168.70357 372.4489 C 171.28011 381.48432 176.96474 392.66455 183.15508 400.8714 C 198.19166 420.80634 220.12973 432.5876 247.0172 435.16697 L 257.18142 436.14205 L 260.05024 440.0199 L 262.91903 443.8977 L 256.1056 443.78354 C 252.3582 443.72074 246.53687 443.39416 243.16927 443.0578 Z M 910.975 443.27514 C 910.975 442.79433 911.2658 442.27853 911.621 442.12886 C 911.9765 441.97923 913.2577 440.54227 914.4683 438.93563 L 916.6694 436.01455 L 926.684 435.1266 C 954.0655 432.69877 976.785 420.22 992.0092 399.24634 C 997.0061 392.36237 1002.7957 380.3914 1005.042 372.2991 L 1006.9007 365.6034 L 1011.2593 363.9311 C 1013.6565 363.01143 1015.7299 362.2589 1015.8666 362.2589 C 1016.5278 362.2589 1011.9808 378.09457 1009.8033 383.37507 C 997.7872 412.51437 973.631 433.2199 942.6984 440.89414 C 933.0536 443.28696 910.975 444.94404 910.975 443.27514 Z M 276.30635 437.1277 L 273.4448 433.6929 L 279.73722 431.6253 C 288.21784 428.8387 296.0087 425.1072 302.65174 420.65024 L 308.16497 416.9513 L 312.60626 418.2702 L 317.04754 419.5891 L 314.1926 422.0394 C 307.0716 428.15103 296.2534 434.26287 285.6111 438.18685 L 279.1679 440.5625 Z M 887.1619 437.829 C 883.2695 436.35104 877.4612 433.6993 874.2545 431.93626 C 865.4912 427.11836 853.2773 417.8388 856.8893 418.743 C 858.2972 419.09544 864.4408 417.5686 864.4408 416.86623 C 864.4408 416.44625 867.1043 417.90566 870.3597 420.10936 C 877.5757 424.99423 882.5448 427.5127 890.5652 430.34985 C 893.9329 431.54114 897.2392 432.74713 897.9128 433.02983 C 898.5863 433.3126 899.4467 433.4743 899.8248 433.38924 C 900.203 433.30417 899.1485 434.899 897.4815 436.93337 C 895.8145 438.9677 894.4029 440.6061 894.3448 440.5742 C 894.2866 440.5423 891.0543 439.307 887.1619 437.829 Z M 213.57753 422.77853 L 209.70205 420.63066 L 209.6997 400.8332 C 209.6984 389.94465 209.8712 381.0358 210.0837 381.0358 C 210.29619 381.0358 212.13305 381.84377 214.16563 382.8313 L 217.8612 384.6267 L 217.8612 404.8738 C 217.8612 416.0096 217.76937 425.07705 217.6571 425.02355 C 217.54486 424.97013 215.70906 423.95987 213.57753 422.77853 Z M 955.06 404.7908 L 955.06 384.47866 L 958.5296 383.07587 C 960.4379 382.3043 962.4585 381.4904 963.0197 381.26707 C 963.8193 380.949 964.0402 385.17266 964.0402 400.7799 L 964.0402 420.69874 L 959.5501 422.9009 L 955.06 425.10306 Z M 908.2063 391.63237 C 907.484 389.82724 906.9011 387.3474 906.911 386.1217 C 906.9381 382.74546 909.6052 377.5647 912.6237 375.0248 C 915.514 372.5928 914.6013 372.64745 927.1626 374.1538 L 931.5124 374.67547 L 928.5911 376.66053 C 926.9846 377.75227 925.67 379.3058 925.67 380.1128 C 925.67 380.9198 925.1695 381.58007 924.5579 381.58007 C 923.9462 381.58007 922.1217 382.39833 920.5036 383.3984 C 918.3758 384.7135 917.4185 385.9791 917.0447 387.97163 C 916.7604 389.4868 916.7483 391.0831 917.0176 391.5189 C 917.374 392.09565 911.2939 394.91445 909.6936 394.91445 C 909.5979 394.91445 908.9285 393.43747 908.2063 391.63237 Z M 919.3848 389.4792 C 918.755 387.83816 922.5355 384.30137 924.9193 384.30137 C 925.8437 384.30137 926.8289 383.50653 927.2379 382.43095 C 927.629 381.4022 928.4755 380.12364 929.119 379.5896 C 930.1531 378.73134 940.5577 374.50475 941.6363 374.50475 C 942.0095 374.50475 941.2117 382.76324 940.7875 383.29204 C 940.599 383.52693 920.6356 390.8325 920.1823 390.8325 C 920.0292 390.8325 919.6703 390.22355 919.3848 389.4792 Z M 944.447 380.67443 C 944.447 377.4256 946.605 373.88078 949.4916 372.38806 C 952.7169 370.72024 957.4973 371.8943 959.4181 374.82608 L 960.691 376.7687 L 953.5894 379.43173 C 949.6836 380.8964 946.0287 382.2632 945.4674 382.46904 C 944.8132 382.70895 944.447 382.06486 944.447 380.67443 Z M 961.4853 372.1166 L 958.5224 368.96777 L 966.742 365.9189 L 974.9618 362.8699 L 976.4054 364.65277 C 977.6185 366.15077 978.1277 366.2865 979.5928 365.50244 C 981.7538 364.3459 984.913 365.05885 985.6037 366.8588 C 985.8882 367.60044 985.9724 368.35616 985.7904 368.53806 C 985.55 368.77848 964.4484 375.45443 964.4484 375.29014 C 964.4484 375.2765 963.115 373.84837 961.4853 372.1166 Z M 940.7989 370.48 C 939.3519 367.27125 939.566 363.07527 941.1767 363.07527 C 941.6563 363.07527 941.6293 362.21224 941.1066 360.8377 C 940.3536 358.8571 940.52 358.3887 942.5555 356.7598 C 945.4697 354.42773 946.4103 354.44443 948.312 356.86215 C 949.156 357.9351 950.5604 358.9489 951.4328 359.11508 C 952.338 359.28756 953.9688 361.18603 955.2315 363.53775 L 957.444 367.6582 L 954.171 367.85135 C 950.195 368.08595 948.0882 368.93537 944.778 371.63863 L 942.2517 373.7017 Z M 930.2423 371.15373 C 927.5934 370.76727 925.2502 370.27504 925.035 370.06 C 924.1032 369.1281 926.801 361.5022 929.4278 357.6431 C 933.7875 351.23845 941.6416 346.7475 948.4833 346.7475 C 953.053 346.7475 959.1816 348.8487 963.4377 351.8748 L 967.258 354.5909 L 963.9461 358.629 C 962.1245 360.84997 960.3569 362.95743 960.0182 363.31235 C 959.6796 363.66723 958.4202 362.47325 957.2197 360.65906 C 956.0191 358.84487 954.4885 357.3606 953.8184 357.3606 C 953.1483 357.3606 951.8272 356.47177 950.8828 355.3855 C 949.9382 354.29926 948.2734 353.18657 947.183 352.9129 C 945.2204 352.42033 940.0045 354.3297 939.0372 355.89476 C 938.3882 356.94496 937.7164 362.4998 937.6012 367.7697 C 937.5297 371.0424 937.218 372.0323 936.2831 371.95615 C 935.6095 371.90133 932.8912 371.54023 930.2423 371.15373 Z M 987.0695 364.96267 C 985.848 363.28598 984.729 362.74514 982.3081 362.6618 C 980.5675 362.6019 978.1092 362.11933 976.8452 361.58945 C 973.8329 360.32677 972.3081 360.3738 968.0974 361.85944 C 966.1749 362.53773 964.5047 362.99544 964.3858 362.87656 C 964.2669 362.75764 966.4852 360.0933 969.3151 356.95563 L 974.4604 351.25085 L 979.4717 351.31896 C 983.7336 351.37684 984.9383 351.74753 987.528 353.7981 C 991.0227 356.56536 995.5277 364.81304 993.9843 365.61837 C 990.7258 367.3187 988.6418 367.12107 987.0695 364.96267 Z M 241.04992 333.053 C 215.86203 320.15488 195.10536 309.40003 194.92396 309.15343 C 194.74257 308.9068 197.60925 303.00034 201.29438 296.02796 C 208.66337 282.0857 223.2715 258.13345 223.7081 259.27735 C 224.07604 260.24134 306.7215 318.99028 307.7097 318.99028 C 308.78542 318.99028 308.6703 319.8608 307.3944 321.37516 C 305.42587 323.71154 296.5044 338.8556 292.6539 346.39698 C 290.5744 350.4698 288.4169 354.4101 287.8595 355.1532 C 286.95204 356.3629 282.05583 354.05133 241.04992 333.053 Z M 858.9549 310.30035 C 860.0129 308.58837 832.6489 275.00768 830.6535 275.56943 C 829.2117 275.97537 830.9833 274.40932 869.7474 241.01225 C 889.953 223.60415 907.2478 208.67463 908.1803 207.83545 C 909.8655 206.31906 909.9338 206.37683 919.4264 217.3657 C 929.3376 228.83902 945.4341 249.9901 945.5851 251.73844 C 945.6697 252.71938 916.8704 272.5682 879.544 297.2547 C 857.5229 311.8188 858.3341 311.30482 858.9549 310.30035 Z M 302.1988 246.5203 C 282.52944 227.95436 265.57194 211.9129 264.5155 210.87255 L 262.59465 208.98108 L 271.0466 199.80118 C 275.69515 194.75234 284.96203 185.67189 291.63964 179.62249 C 301.58993 170.60843 303.9631 168.82144 304.79128 169.71974 C 305.34707 170.3226 319.6967 188.4498 336.67936 210.0024 C 353.662 231.55507 367.9043 249.42332 368.32887 249.70966 C 368.75343 249.996 367.49275 251.62527 365.5273 253.33042 C 363.56185 255.03557 356.55546 261.79602 349.95754 268.3536 L 337.9613 280.2766 Z M 793.7071 241.7096 C 794.61455 240.09067 761.8607 216.89414 759.6556 217.59406 C 759.2326 217.72835 759.4289 216.99358 760.0919 215.96126 C 796.6954 158.96813 815.8322 129.5882 816.3518 129.5882 C 818.8727 129.5882 862.7477 160.83725 862.7748 162.6519 C 862.7846 163.31345 797.0807 239.02587 794.0533 241.84159 C 793.4562 242.39687 793.34555 242.3547 793.7071 241.7096 Z M 382.12122 176.40734 C 367.73656 151.88182 356.1297 131.40622 356.32828 130.90591 C 356.8682 129.54566 378.12096 117.51843 392.98217 110.1631 L 406.05 103.69523 L 426.0459 151.4267 C 437.0436 177.67893 446.1034 199.39377 446.1787 199.6819 C 446.2541 199.97004 442.25327 202.22637 437.28803 204.69597 C 430.18663 208.22799 416.85167 215.69864 409.12874 220.4717 C 408.6274 220.78154 397.4842 202.6008 382.12122 176.40734 Z M 713.7817 194.1331 C 712.6197 192.9772 692.1582 185.6198 682.7944 182.99097 C 678.3043 181.73038 674.5488 180.65897 674.4489 180.61018 C 674.0731 180.42638 704.3969 81.94288 705.0217 81.31811 C 706.3637 79.97604 759.1268 98.29711 759.1268 100.10522 C 759.1268 100.65239 716.93105 190.68509 715.3666 193.47594 C 714.857 194.38488 714.2767 194.62552 713.7817 194.1331 Z M 492.1621 183.36568 C 492.15895 183.19848 486.2878 160.47431 479.11514 132.86758 C 468.89315 93.52447 466.2912 82.47301 467.0791 81.74564 C 468.94726 80.02116 520.9981 68.343714 522.0643 69.409945 C 522.16947 69.51499 524.85376 91.45596 528.0294 118.16748 C 531.2051 144.879 534.0168 168.21478 534.27757 170.02483 C 534.6824 172.83458 534.5298 173.33245 533.2339 173.4301 C 526.48584 173.93846 495.0995 181.3239 493.1882 182.85323 C 492.62693 183.3023 492.16516 183.53296 492.1621 183.36568 Z M 623.9608 171.21077 C 622.53675 170.671 602.44475 169.17847 588.0934 168.54645 L 584.0114 168.3666 L 584.2018 143.875 C 584.30644 130.40459 584.6255 106.9394 584.91076 91.73001 L 585.4294 64.07671 L 599.4154 64.60397 C 615.5462 65.21199 642.3832 67.563244 642.3832 68.36843 C 642.3832 69.44027 626.0493 171.5017 625.8502 171.67422 C 625.7386 171.77094 624.8883 171.56242 623.9608 171.21077 Z" fill="#445aa6"/>
        </g>
      </g>
    </g>
  </g>
</svg>
